<mxfile host="Electron" modified="2021-12-09T06:21:22.843Z" agent="5.0 (X11; Linux x86_64) AppleWebKit/537.36 (KHTML, like Gecko) draw.io/15.8.4 Chrome/91.0.4472.164 Electron/13.6.2 Safari/537.36" etag="u2YI0IbpeELYm7OrdwVg" compressed="false" version="15.8.4" type="device">
  <diagram id="oHCXhDEkAE623AvZaujQ" name="Page-1">
    <mxGraphModel dx="474" dy="293" grid="1" gridSize="1.9685" guides="1" tooltips="1" connect="1" arrows="1" fold="1" page="1" pageScale="1" pageWidth="413" pageHeight="291" math="0" shadow="0">
      <root>
        <mxCell id="0" />
        <mxCell id="1" parent="0" />
        <mxCell id="xHBzkwErOteEwu96gMb--1" value="" style="rounded=0;whiteSpace=wrap;html=1;fillColor=#fff2cc;gradientDirection=radial;opacity=33;strokeColor=none;recursiveResize=0;expand=0;movable=0;resizable=1;rotatable=0;cloneable=0;deletable=0;allowArrows=0;connectable=0;" parent="1" vertex="1">
          <mxGeometry x="25.59" y="25.59" width="208.66" height="90.55" as="geometry" />
        </mxCell>
        <mxCell id="49kb1RIySOHTAMhGocwj-8" value="" style="group;allowArrows=0;dropTarget=0;recursiveResize=0;expand=0;movable=0;resizable=0;rotatable=0;cloneable=0;deletable=0;" parent="1" vertex="1" connectable="0">
          <mxGeometry x="110.23850000000002" y="70.8605" width="39.370000000000005" height="39.370000000000005" as="geometry" />
        </mxCell>
        <mxCell id="49kb1RIySOHTAMhGocwj-9" value="" style="group;allowArrows=0;dropTarget=0;recursiveResize=0;expand=0;movable=1;resizable=0;rotatable=0;cloneable=0;deletable=0;container=0;" parent="49kb1RIySOHTAMhGocwj-8" vertex="1" connectable="0">
          <mxGeometry width="39.36999999999999" height="39.370000000000005" as="geometry" />
        </mxCell>
        <mxCell id="49kb1RIySOHTAMhGocwj-10" value="" style="rounded=0;fontFamily=Helvetica;aspect=fixed;fillColor=none;strokeWidth=1.4;recursiveResize=0;expand=0;movable=0;resizable=0;rotatable=0;deletable=0;pointerEvents=0;allowArrows=0;connectable=0;" parent="49kb1RIySOHTAMhGocwj-8" vertex="1">
          <mxGeometry width="39.37" height="39.37" as="geometry" />
        </mxCell>
        <mxCell id="49kb1RIySOHTAMhGocwj-11" value="" style="group;strokeWidth=1.2;allowArrows=0;recursiveResize=0;expand=0;movable=0;resizable=0;rotatable=0;cloneable=0;deletable=0;container=0;" parent="49kb1RIySOHTAMhGocwj-8" vertex="1" connectable="0">
          <mxGeometry x="1.6899999999999977" y="1.6800000000000068" width="36" height="36" as="geometry" />
        </mxCell>
        <mxCell id="49kb1RIySOHTAMhGocwj-12" value="" style="group;allowArrows=0;dropTarget=0;recursiveResize=0;expand=0;movable=0;resizable=0;rotatable=0;cloneable=0;" parent="49kb1RIySOHTAMhGocwj-8" vertex="1" connectable="0">
          <mxGeometry x="0.12999999999999545" y="0.13800000000000523" width="39" height="39" as="geometry" />
        </mxCell>
        <mxCell id="49kb1RIySOHTAMhGocwj-13" value="" style="endArrow=none;html=1;rounded=0;fontFamily=Helvetica;strokeWidth=1.4;startFill=0;endFill=0;anchorPointDirection=0;bendable=0;movable=0;cloneable=0;deletable=0;" parent="49kb1RIySOHTAMhGocwj-12" edge="1">
          <mxGeometry width="50" height="50" relative="1" as="geometry">
            <mxPoint y="39" as="sourcePoint" />
            <mxPoint x="39" as="targetPoint" />
          </mxGeometry>
        </mxCell>
        <mxCell id="49kb1RIySOHTAMhGocwj-14" value="" style="endArrow=none;html=1;rounded=0;fontFamily=Helvetica;strokeWidth=1.4;deletable=0;cloneable=0;movable=0;bendable=0;anchorPointDirection=0;endFill=0;startFill=0;" parent="49kb1RIySOHTAMhGocwj-12" edge="1">
          <mxGeometry width="50" height="50" relative="1" as="geometry">
            <mxPoint as="sourcePoint" />
            <mxPoint x="39" y="39" as="targetPoint" />
          </mxGeometry>
        </mxCell>
        <mxCell id="49kb1RIySOHTAMhGocwj-15" value="" style="group;allowArrows=0;dropTarget=0;recursiveResize=0;expand=0;movable=0;resizable=0;rotatable=0;cloneable=0;deletable=0;" parent="1" vertex="1" connectable="0">
          <mxGeometry x="110.23700000000002" y="31.48900000000001" width="39.370000000000005" height="39.370000000000005" as="geometry" />
        </mxCell>
        <mxCell id="49kb1RIySOHTAMhGocwj-16" value="" style="group;allowArrows=0;dropTarget=0;recursiveResize=0;expand=0;movable=1;resizable=0;rotatable=0;cloneable=0;deletable=0;container=0;" parent="49kb1RIySOHTAMhGocwj-15" vertex="1" connectable="0">
          <mxGeometry width="39.36999999999999" height="39.370000000000005" as="geometry" />
        </mxCell>
        <mxCell id="49kb1RIySOHTAMhGocwj-17" value="" style="rounded=0;fontFamily=Helvetica;aspect=fixed;fillColor=none;strokeWidth=1.4;recursiveResize=0;expand=0;movable=0;resizable=0;rotatable=0;deletable=0;pointerEvents=0;allowArrows=0;connectable=0;" parent="49kb1RIySOHTAMhGocwj-15" vertex="1">
          <mxGeometry width="39.37" height="39.37" as="geometry" />
        </mxCell>
        <mxCell id="49kb1RIySOHTAMhGocwj-18" value="" style="group;strokeWidth=1.2;allowArrows=0;recursiveResize=0;expand=0;movable=0;resizable=0;rotatable=0;cloneable=0;deletable=0;container=0;" parent="49kb1RIySOHTAMhGocwj-15" vertex="1" connectable="0">
          <mxGeometry x="1.6899999999999977" y="1.6800000000000068" width="36" height="36" as="geometry" />
        </mxCell>
        <mxCell id="49kb1RIySOHTAMhGocwj-19" value="" style="group;allowArrows=0;dropTarget=0;recursiveResize=0;expand=0;movable=0;resizable=0;rotatable=0;cloneable=0;" parent="49kb1RIySOHTAMhGocwj-15" vertex="1" connectable="0">
          <mxGeometry x="0.12999999999999545" y="0.13800000000000523" width="39" height="39" as="geometry" />
        </mxCell>
        <mxCell id="49kb1RIySOHTAMhGocwj-20" value="" style="endArrow=none;html=1;rounded=0;fontFamily=Helvetica;strokeWidth=1.4;startFill=0;endFill=0;anchorPointDirection=0;bendable=0;movable=0;cloneable=0;deletable=0;" parent="49kb1RIySOHTAMhGocwj-19" edge="1">
          <mxGeometry width="50" height="50" relative="1" as="geometry">
            <mxPoint y="39" as="sourcePoint" />
            <mxPoint x="39" as="targetPoint" />
          </mxGeometry>
        </mxCell>
        <mxCell id="49kb1RIySOHTAMhGocwj-21" value="" style="endArrow=none;html=1;rounded=0;fontFamily=Helvetica;strokeWidth=1.4;deletable=0;cloneable=0;movable=0;bendable=0;anchorPointDirection=0;endFill=0;startFill=0;" parent="49kb1RIySOHTAMhGocwj-19" edge="1">
          <mxGeometry width="50" height="50" relative="1" as="geometry">
            <mxPoint as="sourcePoint" />
            <mxPoint x="39" y="39" as="targetPoint" />
          </mxGeometry>
        </mxCell>
        <mxCell id="XiYm6eTCKzTJYRVZxs_D-1" value="" style="endArrow=none;html=1;rounded=0;strokeWidth=4;startArrow=none;startFill=0;endFill=0;endSize=6;startSize=6;sourcePerimeterSpacing=0;jumpSize=8;anchorPointDirection=0;bendable=0;movable=0;cloneable=0;deletable=0;" parent="1" edge="1">
          <mxGeometry width="50" height="50" relative="1" as="geometry">
            <mxPoint x="130" y="110" as="sourcePoint" />
            <mxPoint x="130" y="41" as="targetPoint" />
          </mxGeometry>
        </mxCell>
        <mxCell id="pEjfrNyG5jbjR_oB9bQs-1" value="" style="endArrow=none;html=1;rounded=0;strokeWidth=4;startArrow=none;startFill=0;endFill=0;endSize=6;startSize=6;sourcePerimeterSpacing=0;jumpSize=8;anchorPointDirection=0;bendable=0;movable=0;cloneable=0;deletable=0;" parent="1" edge="1">
          <mxGeometry width="50" height="50" relative="1" as="geometry">
            <mxPoint x="140" y="41" as="sourcePoint" />
            <mxPoint x="120" y="41" as="targetPoint" />
          </mxGeometry>
        </mxCell>
        <mxCell id="pEjfrNyG5jbjR_oB9bQs-2" value="" style="endArrow=none;html=1;rounded=0;strokeWidth=4;startArrow=none;startFill=0;endFill=0;endSize=6;startSize=6;sourcePerimeterSpacing=0;jumpSize=8;anchorPointDirection=0;bendable=0;movable=0;cloneable=0;deletable=0;" parent="1" edge="1">
          <mxGeometry width="50" height="50" relative="1" as="geometry">
            <mxPoint x="140" y="100" as="sourcePoint" />
            <mxPoint x="120" y="81" as="targetPoint" />
          </mxGeometry>
        </mxCell>
        <mxCell id="pEjfrNyG5jbjR_oB9bQs-3" value="" style="endArrow=none;html=1;rounded=0;strokeWidth=4;startArrow=none;startFill=0;endFill=0;endSize=6;startSize=6;sourcePerimeterSpacing=0;jumpSize=8;anchorPointDirection=0;bendable=0;movable=0;cloneable=0;deletable=0;" parent="1" edge="1">
          <mxGeometry width="50" height="50" relative="1" as="geometry">
            <mxPoint x="140" y="81" as="sourcePoint" />
            <mxPoint x="120" y="100" as="targetPoint" />
          </mxGeometry>
        </mxCell>
      </root>
    </mxGraphModel>
  </diagram>
</mxfile>
